<?xml version="1.0" encoding="UTF-8" standalone="no"?>
<svg
   width="114mm"
   height="23.8mm"
   viewBox="0 0 114 23.8"
   version="1.1"
   id="svg1"
   xmlns="http://www.w3.org/2000/svg"
   xmlns:svg="http://www.w3.org/2000/svg">
  <path
     id="text"
     d="m 13.584881,3.323 v 2.406547 l -1.281555,-3.85e-4 v 2.517676 l 1.281555,3.85e-4 v 7.280176 c 0,1.124479 0.318327,1.955436 0.954981,2.492871 0.644922,0.537435 1.632975,0.806152 2.96416,0.806152 h 1.885156 v -2.517676 h -1.339453 c -0.504362,0 -0.851628,-0.08682 -1.041797,-0.260449 -0.190174,-0.181901 -0.285254,-0.508496 -0.285254,-0.979785 V 8.247223 h 2.666504 V 5.729547 H 16.722674 V 3.323 Z m 42.440828,2.108891 c -1.2237,0 -2.30684,0.297656 -3.24942,0.892969 -0.942579,0.587044 -1.682586,1.39733 -2.220021,2.430859 -0.529167,1.025261 -0.79375,2.203483 -0.79375,3.534668 0,1.322917 0.256315,2.501139 0.768945,3.534668 0.520898,1.025261 1.260902,1.831413 2.220026,2.418457 0.95911,0.587045 2.09186,0.880566 3.39824,0.880566 1.02526,0 1.95957,-0.181901 2.80293,-0.545703 0.84336,-0.372071 1.54203,-0.8847 2.096,-1.53789 0.56224,-0.65319 0.92604,-1.405599 1.0914,-2.257227 h -2.92695 c -0.1819,0.56224 -0.52916,1.016992 -1.0418,1.364258 -0.51263,0.338997 -1.16169,0.508496 -1.94717,0.508496 -1.05006,0 -1.86862,-0.326595 -2.45566,-0.979785 -0.58705,-0.65319 -0.90124,-1.513086 -0.94258,-2.579688 h 9.47539 v -0.855761 c 0,-1.339454 -0.26045,-2.517676 -0.78135,-3.534668 -0.52089,-1.025261 -1.25263,-1.827279 -2.19521,-2.406055 -0.94258,-0.578776 -2.04225,-0.868164 -3.29902,-0.868164 z m 51.564811,0 c -1.2237,0 -2.30684,0.297656 -3.24942,0.892969 -0.94257,0.587044 -1.68258,1.39733 -2.22002,2.430859 -0.52916,1.025261 -0.79375,2.203483 -0.79375,3.534668 0,1.322917 0.25632,2.501139 0.76895,3.534668 0.5209,1.025261 1.26091,1.831413 2.22002,2.418457 0.95911,0.587045 2.09186,0.880566 3.39824,0.880566 1.02526,0 1.95957,-0.181901 2.80293,-0.545703 0.84336,-0.372071 1.54202,-0.8847 2.096,-1.53789 0.56223,-0.65319 0.92604,-1.405599 1.0914,-2.257227 h -2.92695 c -0.1819,0.56224 -0.52916,1.016992 -1.0418,1.364258 -0.51262,0.338997 -1.16168,0.508496 -1.94716,0.508496 -1.05006,0 -1.86862,-0.326595 -2.45567,-0.979785 -0.58705,-0.65319 -0.90124,-1.513086 -0.94258,-2.579688 h 9.47539 v -0.855761 c 0,-1.339454 -0.26044,-2.517676 -0.78134,-3.534668 -0.5209,-1.025261 -1.25264,-1.827279 -2.19522,-2.406055 -0.94258,-0.578776 -2.04226,-0.868164 -3.29902,-0.868164 z M 5.72251,5.444291 c -1.595769,0 -2.873209,0.37207 -3.832324,1.116211 -0.959114,0.735872 -1.438672,1.70739 -1.438672,2.914551 0,1.992643 1.273308,3.253548 3.819922,3.782715 l 2.232421,0.458886 c 0.545703,0.115755 0.979786,0.293522 1.302247,0.533301 0.322461,0.239779 0.483691,0.558106 0.483691,0.954981 0,0.463021 -0.219107,0.843358 -0.657324,1.141015 -0.429947,0.297656 -1.021126,0.446485 -1.773535,0.446485 -0.785481,0 -1.401465,-0.173634 -1.84795,-0.520899 C 3.564503,15.916003 3.308191,15.41991 3.242041,14.783256 H 0.153857 c 0.09922,1.405599 0.682129,2.484603 1.748731,3.237012 1.074869,0.744141 2.410188,1.116211 4.005957,1.116211 1.083138,0 2.042253,-0.169499 2.877344,-0.508496 0.835091,-0.338997 1.488281,-0.818555 1.95957,-1.438672 0.479557,-0.628385 0.719336,-1.368393 0.719336,-2.22002 0,-0.959115 -0.310059,-1.732193 -0.930176,-2.319238 C 9.92277,12.063009 8.96779,11.63306 7.669678,11.360209 L 5.313232,10.876518 C 4.767529,10.752495 4.341716,10.570594 4.035791,10.330815 3.729866,10.082768 3.576904,9.764441 3.576904,9.375834 c 0,-0.446485 0.198438,-0.822688 0.595313,-1.128613 0.396875,-0.305924 0.938444,-0.458887 1.624707,-0.458887 0.711067,0 1.28571,0.19017 1.723926,0.570508 0.438219,0.380339 0.665599,0.864029 0.682129,1.451074 h 2.939355 C 11.109264,8.462195 10.592496,7.399728 9.592041,6.622514 8.599853,5.837033 7.310009,5.444291 5.72251,5.444291 Z m 88.601629,0 c -1.59576,0 -2.87321,0.37207 -3.83232,1.116211 -0.95911,0.735872 -1.43867,1.70739 -1.43867,2.914551 0,1.992643 1.27331,3.253548 3.81992,3.782715 l 2.23242,0.458886 c 0.5457,0.115756 0.97978,0.293523 1.30225,0.533301 0.32246,0.239779 0.48369,0.558106 0.48369,0.954981 0,0.46302 -0.21911,0.843359 -0.65733,1.141015 -0.42994,0.297656 -1.02112,0.446485 -1.77353,0.446485 -0.78548,0 -1.40146,-0.173633 -1.84795,-0.520899 -0.4465,-0.355534 -0.70281,-0.851627 -0.76894,-1.488281 h -3.08819 c 0.0992,1.405599 0.68213,2.484603 1.74873,3.237012 1.07488,0.74414 2.41019,1.116211 4.00596,1.116211 1.08313,0 2.04225,-0.169499 2.87734,-0.508496 0.8351,-0.338998 1.48829,-0.818555 1.95957,-1.438672 0.47956,-0.628386 0.719341,-1.368393 0.719341,-2.22002 0,-0.959115 -0.310061,-1.732193 -0.930181,-2.319238 -0.61184,-0.587044 -1.56682,-1.016993 -2.86494,-1.289844 l -2.35644,-0.483691 c -0.5457,-0.124024 -0.97152,-0.305925 -1.27744,-0.545703 -0.30592,-0.248047 -0.45889,-0.566374 -0.45889,-0.954981 0,-0.446485 0.19844,-0.822689 0.59531,-1.128613 0.39687,-0.305924 0.93844,-0.458887 1.62471,-0.458887 0.71106,0 1.28571,0.19017 1.72392,0.570508 0.43822,0.380339 0.6656,0.864029 0.68213,1.451074 h 2.93936 c -0.0331,-1.347721 -0.54983,-2.410188 -1.55029,-3.187402 -0.99219,-0.785482 -2.28204,-1.178223 -3.86954,-1.178223 z m -68.19222,0.02481 c -1.116211,0 -2.10013,0.289388 -2.951758,0.868164 -0.851627,0.570508 -1.513086,1.368392 -1.984375,2.393652 -0.471289,1.016992 -0.706933,2.195215 -0.706933,3.534668 0,1.364258 0.23151,2.559017 0.694531,3.584278 0.471289,1.016992 1.132747,1.810742 1.984375,2.38125 0.851627,0.570508 1.847949,0.855761 2.988965,0.855761 0.851627,0 1.620572,-0.186035 2.306836,-0.558105 0.686262,-0.37207 1.2361,-0.930176 1.649511,-1.674317 h 0.03721 v 1.971973 H 33.21366 V 5.729547 h -3.063379 v 1.823145 h -0.04961 C 29.695528,6.85816 29.145691,6.337262 28.451159,5.989996 27.756628,5.64273 26.983548,5.469098 26.131921,5.469098 Z m 14.630631,0 c -1.11621,0 -2.10013,0.285254 -2.951757,0.855762 -0.851628,0.570508 -1.513087,1.364258 -1.984375,2.38125 -0.47129,1.016992 -0.706934,2.186946 -0.706934,3.509863 0,1.314648 0.231511,2.476334 0.694531,3.485058 0.47129,1.000456 1.132748,1.785938 1.984375,2.356446 0.851628,0.570508 1.84795,0.855761 2.988965,0.855761 0.859896,0 1.628841,-0.177766 2.306836,-0.5333 0.677995,-0.363802 1.227832,-0.930176 1.649512,-1.699121 h 0.0124 v 1.496877 c 0,1.000456 -0.272851,1.765267 -0.818555,2.294434 -0.537434,0.529166 -1.293978,0.79375 -2.269628,0.79375 -0.735873,0 -1.35599,-0.148828 -1.860352,-0.446485 C 39.303206,20.530008 39.077361,20.23293 38.885016,19.823 h -3.063379 c 0.259761,0.935616 0.842263,2.044503 1.859255,2.788644 1.016992,0.74414 2.258968,1.072694 3.987028,1.072694 1.182356,0 2.24069,-0.194304 3.175,-0.582911 0.934309,-0.380338 1.670181,-0.992187 2.207617,-1.835546 0.537434,-0.835092 0.806152,-1.926498 0.806152,-3.274219 V 5.729547 h -3.088184 v 1.947168 h -0.0124 C 44.326157,6.924306 43.763918,6.370335 43.069386,6.014801 42.383124,5.650999 41.614178,5.469098 40.76255,5.469098 Z m 21.844669,0.260449 4.04316,13.096875 h 3.22461 l 1.61231,-5.457031 c 0.1819,-0.603581 0.35553,-1.223698 0.52089,-1.860352 0.16537,-0.636654 0.32659,-1.273307 0.48369,-1.909961 0.16536,0.636654 0.33073,1.273307 0.4961,1.909961 0.16537,0.636654 0.33487,1.256771 0.50849,1.860352 l 1.5875,5.457031 h 3.24942 L 82.388959,5.72955 h -3.32383 l -1.35186,4.97334 c -0.20671,0.777214 -0.40514,1.575098 -0.59531,2.393652 -0.19017,0.818555 -0.38034,1.632976 -0.57051,2.443262 -0.20671,-0.810286 -0.41341,-1.624707 -0.62012,-2.443262 -0.19843,-0.818554 -0.401,-1.616438 -0.60771,-2.393652 l -1.37666,-4.97334 h -2.88975 l -1.38906,4.97334 c -0.21497,0.777214 -0.42581,1.579232 -0.63252,2.406055 -0.20671,0.826822 -0.40928,1.645377 -0.60771,2.455664 -0.19844,-0.810287 -0.39275,-1.628842 -0.58291,-2.455664 -0.19018,-0.826823 -0.38861,-1.628841 -0.59532,-2.406055 l -1.35185,-4.97334 z m 21.12946,0 v 13.096875 h 3.12539 V 5.729547 Z m -27.66136,2.182813 c 0.90124,0 1.63711,0.272851 2.20761,0.818554 0.57878,0.537435 0.91778,1.273307 1.017,2.207617 h -6.44922 c 0.10749,-0.93431 0.44235,-1.670182 1.00459,-2.207617 0.57051,-0.545703 1.31052,-0.818554 2.22002,-0.818554 z m 51.564811,0 c 0.90123,0 1.63711,0.272851 2.20761,0.818554 0.57878,0.537435 0.91778,1.273307 1.017,2.207617 h -6.44922 c 0.10748,-0.93431 0.44235,-1.670182 1.00459,-2.207617 0.5705,-0.545703 1.31051,-0.818554 2.22002,-0.818554 z M 41.519093,8.023984 c 1.025261,0 1.843816,0.380338 2.455664,1.141015 0.620118,0.752409 0.930176,1.756999 0.930176,3.01377 0,1.25677 -0.310058,2.265494 -0.930176,3.026172 -0.611848,0.752408 -1.430403,1.128613 -2.455664,1.128613 -0.967382,0 -1.748731,-0.355534 -2.344043,-1.066602 -0.595312,-0.719336 -0.892968,-1.74873 -0.892968,-3.088183 0,-1.331185 0.297656,-2.356445 0.892968,-3.075781 0.595312,-0.719336 1.376661,-1.079004 2.344043,-1.079004 z m -14.630631,0.03721 c 1.025261,0 1.843815,0.384472 2.455664,1.153418 0.620117,0.760677 0.930176,1.777669 0.930176,3.050976 0,1.273308 -0.310059,2.294434 -0.930176,3.063379 -0.611849,0.760677 -1.430403,1.141016 -2.455664,1.141016 -0.967383,0 -1.74873,-0.359668 -2.344043,-1.079004 -0.595313,-0.727604 -0.892969,-1.769401 -0.892969,-3.125391 0,-1.347721 0.297656,-2.385383 0.892969,-3.112988 0.595313,-0.727604 1.37666,-1.091406 2.344043,-1.091406 z" />
</svg>
