<svg width="591" height="120" viewBox="0 0 591 120" fill="none" xmlns="http://www.w3.org/2000/svg">
<g clip-path="url(#clip0_2_32)">
<path d="M60 10C87.6142 10 110 32.3858 110 60V100C110 105.523 105.523 110 100 110H60C32.3858 110 10 87.6142 10 60C10 32.3858 32.3858 10 60 10ZM60.1367 22C39.15 22.0002 22.1367 39.0133 22.1367 60C22.1367 80.9867 39.15 97.9998 60.1367 98C81.1235 98 98.1367 80.9868 98.1367 60C98.1367 39.0132 81.1235 22 60.1367 22Z" fill="#2559FE"/>
<circle cx="60.137" cy="60" r="28" fill="#2559FE"/>
</g>
<path d="M201.36 27.566V36.6664L196.515 36.6649V46.1855L201.36 46.187V73.7171C201.36 77.9693 202.564 81.1116 204.971 83.1439C207.409 85.1762 211.145 86.1923 216.178 86.1923H223.305V76.6717H218.241C216.334 76.6717 215.021 76.3434 214.302 75.6868C213.583 74.999 213.224 73.7639 213.224 71.9818V46.187H223.305V36.6664H213.224V27.566H201.36ZM361.817 35.5408C357.19 35.5408 353.095 36.6664 349.532 38.9175C345.968 41.1374 343.17 44.2016 341.138 48.1099C339.138 51.9869 338.137 56.4424 338.137 61.4763C338.137 66.4789 339.106 70.9343 341.044 74.8426C343.014 78.7197 345.812 81.7681 349.438 83.9881C353.064 86.208 357.346 87.3179 362.285 87.3179C366.162 87.3179 369.694 86.6301 372.883 85.2544C376.071 83.8474 378.712 81.9089 380.807 79.4388C382.933 76.9688 384.308 74.1235 384.933 70.9031H373.867C373.179 73.0292 371.867 74.7488 369.928 76.062C367.99 77.344 365.536 77.9849 362.567 77.9849C358.597 77.9849 355.502 76.7499 353.283 74.2798C351.063 71.8098 349.875 68.5581 349.719 64.5247H385.543V61.2887C385.543 56.2235 384.558 51.768 382.589 47.9223C380.619 44.0452 377.853 41.0124 374.289 38.8237C370.726 36.6351 366.568 35.5408 361.817 35.5408ZM556.768 35.5408C552.141 35.5408 548.046 36.6664 544.483 38.9175C540.919 41.1374 538.121 44.2016 536.089 48.1099C534.089 51.9869 533.089 56.4424 533.089 61.4763C533.089 66.4789 534.058 70.9343 535.996 74.8426C537.965 78.7197 540.763 81.7681 544.389 83.9881C548.015 86.208 552.298 87.3179 557.237 87.3179C561.113 87.3179 564.645 86.6301 567.834 85.2544C571.022 83.8474 573.664 81.9089 575.758 79.4388C577.884 76.9688 579.259 74.1235 579.884 70.9031H568.818C568.131 73.0292 566.818 74.7488 564.88 76.062C562.942 77.344 560.488 77.9849 557.518 77.9849C553.548 77.9849 550.453 76.7499 548.234 74.2798C546.014 71.8098 544.827 68.5581 544.67 64.5247H580.494V61.2887C580.494 56.2235 579.509 51.768 577.54 47.9223C575.571 44.0452 572.804 41.0124 569.24 38.8237C565.677 36.6351 561.519 35.5408 556.768 35.5408ZM171.635 35.5877C165.602 35.5877 160.772 36.9946 157.146 39.8086C153.52 42.5913 151.707 46.2651 151.707 50.83C151.707 58.3652 156.521 63.1334 166.149 65.1344L174.589 66.8697C176.652 67.3074 178.294 67.9797 179.513 68.8864C180.732 69.7931 181.341 70.9969 181.341 72.4977C181.341 74.2486 180.513 75.6868 178.856 76.8124C177.231 77.938 174.996 78.5008 172.151 78.5008C169.181 78.5008 166.852 77.8442 165.164 76.531C163.476 75.1866 162.507 73.3106 162.257 70.9031H150.582C150.957 76.2184 153.161 80.2986 157.193 83.1439C161.257 85.9578 166.305 87.3648 172.339 87.3648C176.434 87.3648 180.06 86.7239 183.217 85.4419C186.374 84.16 188.844 82.3466 190.625 80.0016C192.439 77.6253 193.345 74.827 193.345 71.6066C193.345 67.9797 192.173 65.0562 189.828 62.8363C187.515 60.6164 183.905 58.9906 178.997 57.9588L170.088 56.1297C168.025 55.6607 166.415 54.9728 165.258 54.0661C164.102 53.1281 163.523 51.9244 163.523 50.4548C163.523 48.7664 164.274 47.3438 165.774 46.187C167.274 45.0301 169.322 44.4517 171.917 44.4517C174.605 44.4517 176.777 45.1708 178.434 46.6091C180.091 48.0473 180.951 49.8764 181.013 52.0963H192.126C192.001 46.9999 190.047 42.9822 186.265 40.0431C182.514 37.0728 177.637 35.5877 171.635 35.5877ZM506.612 35.5877C500.578 35.5877 495.749 36.9946 492.123 39.8086C488.497 42.5913 486.684 46.2651 486.684 50.83C486.684 58.3652 491.498 63.1334 501.125 65.1344L509.566 66.8697C511.629 67.3074 513.27 67.9797 514.489 68.8864C515.708 69.7931 516.318 70.9969 516.318 72.4977C516.318 74.2486 515.489 75.6868 513.833 76.8124C512.207 77.938 509.972 78.5008 507.127 78.5008C504.158 78.5008 501.829 77.8442 500.141 76.531C498.453 75.1866 497.484 73.3106 497.234 70.9031H485.558C485.933 76.2184 488.137 80.2986 492.17 83.1439C496.233 85.9578 501.282 87.3648 507.315 87.3648C511.41 87.3648 515.036 86.7239 518.193 85.4419C521.351 84.16 523.82 82.3466 525.602 80.0016C527.415 77.6253 528.321 74.827 528.321 71.6066C528.321 67.9797 527.149 65.0562 524.805 62.8363C522.492 60.6164 518.881 58.9906 513.973 57.9588L505.064 56.1297C503.001 55.6607 501.391 54.9728 500.235 54.0661C499.078 53.1281 498.5 51.9244 498.5 50.4548C498.5 48.7664 499.25 47.3438 500.75 46.187C502.251 45.0301 504.298 44.4517 506.893 44.4517C509.581 44.4517 511.754 45.1708 513.411 46.6091C515.067 48.0473 515.927 49.8764 515.989 52.0963H527.102C526.977 46.9999 525.024 42.9822 521.241 40.0431C517.49 37.0728 512.613 35.5877 506.612 35.5877ZM248.797 35.6815C244.577 35.6815 240.857 36.7758 237.637 38.9644C234.418 41.1218 231.917 44.139 230.135 48.0161C228.353 51.8618 227.462 56.3173 227.462 61.3825C227.462 66.5414 228.338 71.0594 230.088 74.9365C231.87 78.7822 234.371 81.7838 237.59 83.9412C240.81 86.0986 244.577 87.1773 248.891 87.1773C252.111 87.1773 255.018 86.4738 257.612 85.0668C260.207 83.6598 262.286 81.5493 263.849 78.7353H263.989V86.1924H275.571V36.6664H263.989V43.5606H263.802C262.27 40.9342 260.191 38.9644 257.565 37.6512C254.94 36.3381 252.017 35.6815 248.797 35.6815ZM304.111 35.6815C299.891 35.6815 296.171 36.7602 292.951 38.9175C289.732 41.0749 287.231 44.0765 285.449 47.9223C283.667 51.768 282.776 56.1922 282.776 61.1949C282.776 66.1662 283.652 70.5592 285.402 74.3737C287.184 78.1569 289.685 81.1272 292.905 83.2846C296.124 85.442 299.891 86.5207 304.205 86.5207C307.456 86.5207 310.363 85.8484 312.926 84.504C315.49 83.1283 317.568 80.9865 319.163 78.0787H319.21V83.7392C319.21 87.5224 318.178 90.4146 316.115 92.4156C314.083 94.4167 311.223 95.4172 307.534 95.4172C304.752 95.4172 302.407 94.8544 300.501 93.7288C298.594 92.6345 297.74 91.5111 297.013 89.9609H285.431C286.413 93.499 288.615 97.6922 292.46 100.506C296.305 103.32 301.001 104.563 307.534 104.563C312.004 104.563 316.005 103.828 319.538 102.358C323.07 100.92 325.852 98.6064 327.884 95.4172C329.916 92.2593 330.932 88.1321 330.932 83.0357V36.6664H319.256V44.0296H319.21C317.584 41.1843 315.458 39.0895 312.833 37.745C310.238 36.3693 307.331 35.6815 304.111 35.6815ZM386.699 36.6664L401.985 86.1924H414.177L420.272 65.5565C420.96 63.2741 421.616 60.9291 422.242 58.5216C422.867 56.1141 423.476 53.7066 424.07 51.299C424.695 53.7066 425.321 56.1141 425.946 58.5216C426.571 60.9291 427.212 63.2741 427.868 65.5565L433.87 86.1924H446.155L461.488 36.6664H448.922L443.811 55.4731C443.029 58.4122 442.279 61.4294 441.56 64.5247C440.841 67.6201 440.122 70.6999 439.403 73.764C438.622 70.6999 437.84 67.6201 437.059 64.5247C436.309 61.4294 435.543 58.4122 434.761 55.4731L429.556 36.6664H418.631L413.379 55.4731C412.567 58.4122 411.77 61.445 410.988 64.5716C410.207 67.6983 409.441 70.7936 408.691 73.8578C407.94 70.7936 407.206 67.6983 406.487 64.5716C405.768 61.445 405.018 58.4122 404.236 55.4731L399.125 36.6664H386.699ZM466.584 36.6664V86.1924H478.4V36.6664L466.584 36.6664ZM362.004 44.9207C365.411 44.9207 368.194 45.9525 370.35 48.0161C372.539 50.0484 373.82 52.8311 374.195 56.3642H349.813C350.219 52.8311 351.485 50.0484 353.611 48.0161C355.768 45.9525 358.566 44.9207 362.004 44.9207ZM556.955 44.9207C560.363 44.9207 563.145 45.9525 565.302 48.0161C567.49 50.0484 568.772 52.8311 569.147 56.3642H544.764C545.17 52.8311 546.436 50.0484 548.562 48.0161C550.719 45.9525 553.517 44.9207 556.955 44.9207ZM306.971 45.3428C310.848 45.3428 313.942 46.781 316.256 49.6576C318.6 52.5028 319.772 56.3017 319.772 61.0542C319.772 65.8067 318.6 69.6212 316.256 72.4977C313.942 75.3429 310.848 76.7655 306.971 76.7655C303.314 76.7655 300.36 75.4211 298.109 72.7322C295.859 70.012 294.733 66.1193 294.733 61.0542C294.733 56.0203 295.859 52.1432 298.109 49.4231C300.36 46.7029 303.314 45.3428 306.971 45.3428ZM251.657 45.4835C255.534 45.4835 258.628 46.9374 260.941 49.8452C263.286 52.7217 264.458 56.5674 264.458 61.3825C264.458 66.1975 263.286 70.0589 260.941 72.9667C258.628 75.8432 255.534 77.2814 251.657 77.2814C248 77.2814 245.046 75.9214 242.795 73.2012C240.545 70.4497 239.419 66.5102 239.419 61.3825C239.419 56.286 240.545 52.3621 242.795 49.6107C245.046 46.8592 248 45.4835 251.657 45.4835Z" fill="#161515"/>
<defs>
<clipPath id="clip0_2_32">
<rect width="100" height="100" fill="white" transform="translate(10 10)"/>
</clipPath>
</defs>
</svg>
