<?xml version="1.0" encoding="UTF-8" standalone="no"?>
<!-- Created with Inkscape (http://www.inkscape.org/) -->

<svg
   width="2048mm"
   height="2048mm"
   viewBox="0 0 2048 2048"
   version="1.1"
   id="svg1"
   inkscape:version="1.4.2 (ebf0e940, 2025-05-08)"
   sodipodi:docname="inkscape.svg"
   inkscape:export-filename="../macos/icon_16x16.png"
   inkscape:export-xdpi="1"
   inkscape:export-ydpi="1"
   xml:space="preserve"
   xmlns:inkscape="http://www.inkscape.org/namespaces/inkscape"
   xmlns:sodipodi="http://sodipodi.sourceforge.net/DTD/sodipodi-0.dtd"
   xmlns:xlink="http://www.w3.org/1999/xlink"
   xmlns="http://www.w3.org/2000/svg"
   xmlns:svg="http://www.w3.org/2000/svg"><sodipodi:namedview
     id="namedview1"
     pagecolor="#ffffff"
     bordercolor="#000000"
     borderopacity="0.25"
     inkscape:showpageshadow="2"
     inkscape:pageopacity="0.0"
     inkscape:pagecheckerboard="0"
     inkscape:deskcolor="#d1d1d1"
     inkscape:document-units="mm"
     inkscape:zoom="0.042425196"
     inkscape:cx="1249.2576"
     inkscape:cy="1378.8976"
     inkscape:window-width="1696"
     inkscape:window-height="942"
     inkscape:window-x="0"
     inkscape:window-y="39"
     inkscape:window-maximized="1"
     inkscape:current-layer="layer3"><inkscape:page
       x="0"
       y="0"
       width="2048"
       height="2048"
       id="page2"
       margin="0"
       bleed="0" /></sodipodi:namedview><defs
     id="defs1"><linearGradient
       id="linearGradient15"
       inkscape:collect="always"><stop
         style="stop-color:#5896da;stop-opacity:1;"
         offset="0.12020905"
         id="stop1" /><stop
         style="stop-color:#0ea5e9;stop-opacity:0;"
         offset="0.99825782"
         id="stop15" /></linearGradient><linearGradient
       id="linearGradient13"
       inkscape:collect="always"><stop
         style="stop-color:#0ea5e9;stop-opacity:1;"
         offset="0.28222996"
         id="stop11" /><stop
         style="stop-color:#0ea5e9;stop-opacity:0.82745099;"
         offset="0.53658539"
         id="stop12" /><stop
         style="stop-color:#0ea5e9;stop-opacity:0;"
         offset="0.99825782"
         id="stop13" /></linearGradient><linearGradient
       id="linearGradient10"
       inkscape:collect="always"><stop
         style="stop-color:#d4b53b;stop-opacity:1;"
         offset="0.28222996"
         id="stop8" /><stop
         style="stop-color:#facc15;stop-opacity:0.82745099;"
         offset="0.53658539"
         id="stop9" /><stop
         style="stop-color:#facc15;stop-opacity:0;"
         offset="0.99825782"
         id="stop10" /></linearGradient><linearGradient
       id="linearGradient7"
       inkscape:collect="always"><stop
         style="stop-color:#c026d3;stop-opacity:1;"
         offset="0.28222996"
         id="stop5" /><stop
         style="stop-color:#c026d3;stop-opacity:0.82745099;"
         offset="0.53658539"
         id="stop6" /><stop
         style="stop-color:#c026d3;stop-opacity:0;"
         offset="0.99825782"
         id="stop7" /></linearGradient><linearGradient
       id="linearGradient2"
       inkscape:collect="always"><stop
         style="stop-color:#2563eb;stop-opacity:1;"
         offset="0.28222996"
         id="stop2" /><stop
         style="stop-color:#2563eb;stop-opacity:0.82745098;"
         offset="0.53658539"
         id="stop4" /><stop
         style="stop-color:#2563eb;stop-opacity:0;"
         offset="0.99825782"
         id="stop3" /></linearGradient><radialGradient
       inkscape:collect="always"
       xlink:href="#linearGradient2"
       id="radialGradient3"
       cx="885.28845"
       cy="1427.8846"
       fx="885.28845"
       fy="1427.8846"
       r="633.98071"
       gradientTransform="matrix(2.9819823,0,0,1.7261589,-2097.3183,-685.01975)"
       gradientUnits="userSpaceOnUse" /><radialGradient
       inkscape:collect="always"
       xlink:href="#linearGradient7"
       id="radialGradient3-4"
       cx="885.28845"
       cy="1427.8846"
       fx="885.28845"
       fy="1427.8846"
       r="633.98071"
       gradientTransform="matrix(1.1175958,0,0,1.2306634,655.80624,-483.68251)"
       gradientUnits="userSpaceOnUse" /><radialGradient
       inkscape:collect="always"
       xlink:href="#linearGradient10"
       id="radialGradient3-9"
       cx="885.28845"
       cy="1427.8846"
       fx="885.28845"
       fy="1427.8846"
       r="633.98071"
       gradientTransform="matrix(1.689857,0,0,1.0865192,-1132.7812,-814.6999)"
       gradientUnits="userSpaceOnUse" /><radialGradient
       inkscape:collect="always"
       xlink:href="#linearGradient13"
       id="radialGradient3-8"
       cx="885.28845"
       cy="1427.8846"
       fx="885.28845"
       fy="1427.8846"
       r="633.98071"
       gradientTransform="matrix(1.2978366,0,0,1.158414,130.82167,-1122.9244)"
       gradientUnits="userSpaceOnUse" /><clipPath
       clipPathUnits="userSpaceOnUse"
       id="clipPath13"><circle
         style="opacity:0.581784;fill:#000000;stroke-width:0;stroke-dasharray:none;paint-order:stroke fill markers"
         id="circle13"
         cx="1024"
         cy="1024"
         r="1024" /></clipPath><filter
       style="color-interpolation-filters:sRGB"
       inkscape:label="Drop Shadow"
       id="filter41"
       x="-2.142553"
       y="-2.142377"
       width="5.285106"
       height="5.5525512"><feFlood
         result="flood"
         in="SourceGraphic"
         flood-opacity="0.149020"
         flood-color="rgb(0,0,0)"
         id="feFlood40" /><feGaussianBlur
         result="blur"
         in="SourceGraphic"
         stdDeviation="50.000000"
         id="feGaussianBlur40" /><feOffset
         result="offset"
         in="blur"
         dx="0.000000"
         dy="15.000000"
         id="feOffset40" /><feComposite
         result="comp1"
         operator="in"
         in="flood"
         in2="offset"
         id="feComposite40" /><feComposite
         result="fbSourceGraphic"
         operator="over"
         in="SourceGraphic"
         in2="comp1"
         id="feComposite41" /><feColorMatrix
         result="fbSourceGraphicAlpha"
         in="fbSourceGraphic"
         values="0 0 0 -1 0 0 0 0 -1 0 0 0 0 -1 0 0 0 0 1 0"
         id="feColorMatrix41" /><feFlood
         id="feFlood41"
         result="flood"
         in="fbSourceGraphic"
         flood-opacity="0.149020"
         flood-color="rgb(0,0,0)" /><feGaussianBlur
         id="feGaussianBlur41"
         result="blur"
         in="fbSourceGraphic"
         stdDeviation="50.000000" /><feOffset
         id="feOffset41"
         result="offset"
         in="blur"
         dx="0.000000"
         dy="15.000000" /><feComposite
         id="feComposite42"
         result="comp1"
         operator="in"
         in="flood"
         in2="offset" /><feComposite
         id="feComposite43"
         result="comp2"
         operator="over"
         in="fbSourceGraphic"
         in2="comp1" /></filter><radialGradient
       inkscape:collect="always"
       xlink:href="#linearGradient15"
       id="radialGradient3-8-3"
       cx="885.28845"
       cy="1427.8846"
       fx="885.28845"
       fy="1427.8846"
       r="633.98071"
       gradientTransform="matrix(1.4989017,0,0,1.0635007,-1472.6833,-1014.0513)"
       gradientUnits="userSpaceOnUse" /><filter
       style="color-interpolation-filters:sRGB"
       inkscape:label="Drop Shadow"
       id="filter41-3"
       x="-2.142553"
       y="-2.1423776"
       width="5.285106"
       height="5.5525524"><feFlood
         result="flood"
         in="SourceGraphic"
         flood-opacity="0.149020"
         flood-color="rgb(0,0,0)"
         id="feFlood40-5" /><feGaussianBlur
         result="blur"
         in="SourceGraphic"
         stdDeviation="50.000000"
         id="feGaussianBlur40-4" /><feOffset
         result="offset"
         in="blur"
         dx="0.000000"
         dy="15.000000"
         id="feOffset40-3" /><feComposite
         result="comp1"
         operator="in"
         in="flood"
         in2="offset"
         id="feComposite40-6" /><feComposite
         result="fbSourceGraphic"
         operator="over"
         in="SourceGraphic"
         in2="comp1"
         id="feComposite41-5" /><feColorMatrix
         result="fbSourceGraphicAlpha"
         in="fbSourceGraphic"
         values="0 0 0 -1 0 0 0 0 -1 0 0 0 0 -1 0 0 0 0 1 0"
         id="feColorMatrix41-9" /><feFlood
         id="feFlood41-5"
         result="flood"
         in="fbSourceGraphic"
         flood-opacity="0.149020"
         flood-color="rgb(0,0,0)" /><feGaussianBlur
         id="feGaussianBlur41-4"
         result="blur"
         in="fbSourceGraphic"
         stdDeviation="50.000000" /><feOffset
         id="feOffset41-9"
         result="offset"
         in="blur"
         dx="0.000000"
         dy="15.000000" /><feComposite
         id="feComposite42-1"
         result="comp1"
         operator="in"
         in="flood"
         in2="offset" /><feComposite
         id="feComposite43-7"
         result="comp2"
         operator="over"
         in="fbSourceGraphic"
         in2="comp1" /></filter><filter
       style="color-interpolation-filters:sRGB"
       inkscape:label="Drop Shadow"
       id="filter41-2"
       x="-2.142553"
       y="-2.1423778"
       width="5.285106"
       height="5.5525528"><feFlood
         result="flood"
         in="SourceGraphic"
         flood-opacity="0.149020"
         flood-color="rgb(0,0,0)"
         id="feFlood40-2" /><feGaussianBlur
         result="blur"
         in="SourceGraphic"
         stdDeviation="50.000000"
         id="feGaussianBlur40-52" /><feOffset
         result="offset"
         in="blur"
         dx="0.000000"
         dy="15.000000"
         id="feOffset40-27" /><feComposite
         result="comp1"
         operator="in"
         in="flood"
         in2="offset"
         id="feComposite40-1" /><feComposite
         result="fbSourceGraphic"
         operator="over"
         in="SourceGraphic"
         in2="comp1"
         id="feComposite41-52" /><feColorMatrix
         result="fbSourceGraphicAlpha"
         in="fbSourceGraphic"
         values="0 0 0 -1 0 0 0 0 -1 0 0 0 0 -1 0 0 0 0 1 0"
         id="feColorMatrix41-1" /><feFlood
         id="feFlood41-1"
         result="flood"
         in="fbSourceGraphic"
         flood-opacity="0.149020"
         flood-color="rgb(0,0,0)" /><feGaussianBlur
         id="feGaussianBlur41-01"
         result="blur"
         in="fbSourceGraphic"
         stdDeviation="50.000000" /><feOffset
         id="feOffset41-8"
         result="offset"
         in="blur"
         dx="0.000000"
         dy="15.000000" /><feComposite
         id="feComposite42-7"
         result="comp1"
         operator="in"
         in="flood"
         in2="offset" /><feComposite
         id="feComposite43-6"
         result="comp2"
         operator="over"
         in="fbSourceGraphic"
         in2="comp1" /></filter><filter
       style="color-interpolation-filters:sRGB"
       inkscape:label="Drop Shadow"
       id="filter41-2-5"
       x="-2.142553"
       y="-2.1423778"
       width="5.285106"
       height="5.5525528"><feFlood
         result="flood"
         in="SourceGraphic"
         flood-opacity="0.149020"
         flood-color="rgb(0,0,0)"
         id="feFlood40-2-6" /><feGaussianBlur
         result="blur"
         in="SourceGraphic"
         stdDeviation="50.000000"
         id="feGaussianBlur40-52-3" /><feOffset
         result="offset"
         in="blur"
         dx="0.000000"
         dy="15.000000"
         id="feOffset40-27-6" /><feComposite
         result="comp1"
         operator="in"
         in="flood"
         in2="offset"
         id="feComposite40-1-3" /><feComposite
         result="fbSourceGraphic"
         operator="over"
         in="SourceGraphic"
         in2="comp1"
         id="feComposite41-52-0" /><feColorMatrix
         result="fbSourceGraphicAlpha"
         in="fbSourceGraphic"
         values="0 0 0 -1 0 0 0 0 -1 0 0 0 0 -1 0 0 0 0 1 0"
         id="feColorMatrix41-1-8" /><feFlood
         id="feFlood41-1-4"
         result="flood"
         in="fbSourceGraphic"
         flood-opacity="0.149020"
         flood-color="rgb(0,0,0)" /><feGaussianBlur
         id="feGaussianBlur41-01-0"
         result="blur"
         in="fbSourceGraphic"
         stdDeviation="50.000000" /><feOffset
         id="feOffset41-8-4"
         result="offset"
         in="blur"
         dx="0.000000"
         dy="15.000000" /><feComposite
         id="feComposite42-7-6"
         result="comp1"
         operator="in"
         in="flood"
         in2="offset" /><feComposite
         id="feComposite43-6-4"
         result="comp2"
         operator="over"
         in="fbSourceGraphic"
         in2="comp1" /></filter><filter
       style="color-interpolation-filters:sRGB"
       inkscape:label="Drop Shadow"
       id="filter41-2-0"
       x="-2.142553"
       y="-2.1423778"
       width="5.285106"
       height="5.5525528"><feFlood
         result="flood"
         in="SourceGraphic"
         flood-opacity="0.149020"
         flood-color="rgb(0,0,0)"
         id="feFlood40-2-0" /><feGaussianBlur
         result="blur"
         in="SourceGraphic"
         stdDeviation="50.000000"
         id="feGaussianBlur40-52-9" /><feOffset
         result="offset"
         in="blur"
         dx="0.000000"
         dy="15.000000"
         id="feOffset40-27-3" /><feComposite
         result="comp1"
         operator="in"
         in="flood"
         in2="offset"
         id="feComposite40-1-7" /><feComposite
         result="fbSourceGraphic"
         operator="over"
         in="SourceGraphic"
         in2="comp1"
         id="feComposite41-52-5" /><feColorMatrix
         result="fbSourceGraphicAlpha"
         in="fbSourceGraphic"
         values="0 0 0 -1 0 0 0 0 -1 0 0 0 0 -1 0 0 0 0 1 0"
         id="feColorMatrix41-1-7" /><feFlood
         id="feFlood41-1-2"
         result="flood"
         in="fbSourceGraphic"
         flood-opacity="0.149020"
         flood-color="rgb(0,0,0)" /><feGaussianBlur
         id="feGaussianBlur41-01-9"
         result="blur"
         in="fbSourceGraphic"
         stdDeviation="50.000000" /><feOffset
         id="feOffset41-8-7"
         result="offset"
         in="blur"
         dx="0.000000"
         dy="15.000000" /><feComposite
         id="feComposite42-7-5"
         result="comp1"
         operator="in"
         in="flood"
         in2="offset" /><feComposite
         id="feComposite43-6-6"
         result="comp2"
         operator="over"
         in="fbSourceGraphic"
         in2="comp1" /></filter><filter
       style="color-interpolation-filters:sRGB"
       inkscape:label="Drop Shadow"
       id="filter41-2-55"
       x="-2.142553"
       y="-2.1423778"
       width="5.285106"
       height="5.5525528"><feFlood
         result="flood"
         in="SourceGraphic"
         flood-opacity="0.149020"
         flood-color="rgb(0,0,0)"
         id="feFlood40-2-5" /><feGaussianBlur
         result="blur"
         in="SourceGraphic"
         stdDeviation="50.000000"
         id="feGaussianBlur40-52-4" /><feOffset
         result="offset"
         in="blur"
         dx="0.000000"
         dy="15.000000"
         id="feOffset40-27-2" /><feComposite
         result="comp1"
         operator="in"
         in="flood"
         in2="offset"
         id="feComposite40-1-1" /><feComposite
         result="fbSourceGraphic"
         operator="over"
         in="SourceGraphic"
         in2="comp1"
         id="feComposite41-52-9" /><feColorMatrix
         result="fbSourceGraphicAlpha"
         in="fbSourceGraphic"
         values="0 0 0 -1 0 0 0 0 -1 0 0 0 0 -1 0 0 0 0 1 0"
         id="feColorMatrix41-1-2" /><feFlood
         id="feFlood41-1-45"
         result="flood"
         in="fbSourceGraphic"
         flood-opacity="0.149020"
         flood-color="rgb(0,0,0)" /><feGaussianBlur
         id="feGaussianBlur41-01-8"
         result="blur"
         in="fbSourceGraphic"
         stdDeviation="50.000000" /><feOffset
         id="feOffset41-8-6"
         result="offset"
         in="blur"
         dx="0.000000"
         dy="15.000000" /><feComposite
         id="feComposite42-7-2"
         result="comp1"
         operator="in"
         in="flood"
         in2="offset" /><feComposite
         id="feComposite43-6-5"
         result="comp2"
         operator="over"
         in="fbSourceGraphic"
         in2="comp1" /></filter><filter
       style="color-interpolation-filters:sRGB"
       inkscape:label="Drop Shadow"
       id="filter41-2-7"
       x="-2.142553"
       y="-2.1423778"
       width="5.285106"
       height="5.5525528"><feFlood
         result="flood"
         in="SourceGraphic"
         flood-opacity="0.149020"
         flood-color="rgb(0,0,0)"
         id="feFlood40-2-50" /><feGaussianBlur
         result="blur"
         in="SourceGraphic"
         stdDeviation="50.000000"
         id="feGaussianBlur40-52-2" /><feOffset
         result="offset"
         in="blur"
         dx="0.000000"
         dy="15.000000"
         id="feOffset40-27-1" /><feComposite
         result="comp1"
         operator="in"
         in="flood"
         in2="offset"
         id="feComposite40-1-8" /><feComposite
         result="fbSourceGraphic"
         operator="over"
         in="SourceGraphic"
         in2="comp1"
         id="feComposite41-52-7" /><feColorMatrix
         result="fbSourceGraphicAlpha"
         in="fbSourceGraphic"
         values="0 0 0 -1 0 0 0 0 -1 0 0 0 0 -1 0 0 0 0 1 0"
         id="feColorMatrix41-1-1" /><feFlood
         id="feFlood41-1-5"
         result="flood"
         in="fbSourceGraphic"
         flood-opacity="0.149020"
         flood-color="rgb(0,0,0)" /><feGaussianBlur
         id="feGaussianBlur41-01-5"
         result="blur"
         in="fbSourceGraphic"
         stdDeviation="50.000000" /><feOffset
         id="feOffset41-8-8"
         result="offset"
         in="blur"
         dx="0.000000"
         dy="15.000000" /><feComposite
         id="feComposite42-7-56"
         result="comp1"
         operator="in"
         in="flood"
         in2="offset" /><feComposite
         id="feComposite43-6-7"
         result="comp2"
         operator="over"
         in="fbSourceGraphic"
         in2="comp1" /></filter><filter
       style="color-interpolation-filters:sRGB"
       inkscape:label="Drop Shadow"
       id="filter41-2-2"
       x="-2.142553"
       y="-2.1423778"
       width="5.285106"
       height="5.5525528"><feFlood
         result="flood"
         in="SourceGraphic"
         flood-opacity="0.149020"
         flood-color="rgb(0,0,0)"
         id="feFlood40-2-04" /><feGaussianBlur
         result="blur"
         in="SourceGraphic"
         stdDeviation="50.000000"
         id="feGaussianBlur40-52-45" /><feOffset
         result="offset"
         in="blur"
         dx="0.000000"
         dy="15.000000"
         id="feOffset40-27-9" /><feComposite
         result="comp1"
         operator="in"
         in="flood"
         in2="offset"
         id="feComposite40-1-75" /><feComposite
         result="fbSourceGraphic"
         operator="over"
         in="SourceGraphic"
         in2="comp1"
         id="feComposite41-52-3" /><feColorMatrix
         result="fbSourceGraphicAlpha"
         in="fbSourceGraphic"
         values="0 0 0 -1 0 0 0 0 -1 0 0 0 0 -1 0 0 0 0 1 0"
         id="feColorMatrix41-1-9" /><feFlood
         id="feFlood41-1-0"
         result="flood"
         in="fbSourceGraphic"
         flood-opacity="0.149020"
         flood-color="rgb(0,0,0)" /><feGaussianBlur
         id="feGaussianBlur41-01-55"
         result="blur"
         in="fbSourceGraphic"
         stdDeviation="50.000000" /><feOffset
         id="feOffset41-8-63"
         result="offset"
         in="blur"
         dx="0.000000"
         dy="15.000000" /><feComposite
         id="feComposite42-7-26"
         result="comp1"
         operator="in"
         in="flood"
         in2="offset" /><feComposite
         id="feComposite43-6-8"
         result="comp2"
         operator="over"
         in="fbSourceGraphic"
         in2="comp1" /></filter><filter
       style="color-interpolation-filters:sRGB"
       inkscape:label="Drop Shadow"
       id="filter41-2-71"
       x="-2.142553"
       y="-2.1423778"
       width="5.285106"
       height="5.5525528"><feFlood
         result="flood"
         in="SourceGraphic"
         flood-opacity="0.149020"
         flood-color="rgb(0,0,0)"
         id="feFlood40-2-9" /><feGaussianBlur
         result="blur"
         in="SourceGraphic"
         stdDeviation="50.000000"
         id="feGaussianBlur40-52-31" /><feOffset
         result="offset"
         in="blur"
         dx="0.000000"
         dy="15.000000"
         id="feOffset40-27-14" /><feComposite
         result="comp1"
         operator="in"
         in="flood"
         in2="offset"
         id="feComposite40-1-9" /><feComposite
         result="fbSourceGraphic"
         operator="over"
         in="SourceGraphic"
         in2="comp1"
         id="feComposite41-52-59" /><feColorMatrix
         result="fbSourceGraphicAlpha"
         in="fbSourceGraphic"
         values="0 0 0 -1 0 0 0 0 -1 0 0 0 0 -1 0 0 0 0 1 0"
         id="feColorMatrix41-1-0" /><feFlood
         id="feFlood41-1-9"
         result="flood"
         in="fbSourceGraphic"
         flood-opacity="0.149020"
         flood-color="rgb(0,0,0)" /><feGaussianBlur
         id="feGaussianBlur41-01-3"
         result="blur"
         in="fbSourceGraphic"
         stdDeviation="50.000000" /><feOffset
         id="feOffset41-8-40"
         result="offset"
         in="blur"
         dx="0.000000"
         dy="15.000000" /><feComposite
         id="feComposite42-7-7"
         result="comp1"
         operator="in"
         in="flood"
         in2="offset" /><feComposite
         id="feComposite43-6-57"
         result="comp2"
         operator="over"
         in="fbSourceGraphic"
         in2="comp1" /></filter><filter
       style="color-interpolation-filters:sRGB"
       inkscape:label="Drop Shadow"
       id="filter41-2-8"
       x="-2.142553"
       y="-2.1423778"
       width="5.285106"
       height="5.5525528"><feFlood
         result="flood"
         in="SourceGraphic"
         flood-opacity="0.149020"
         flood-color="rgb(0,0,0)"
         id="feFlood40-2-4" /><feGaussianBlur
         result="blur"
         in="SourceGraphic"
         stdDeviation="50.000000"
         id="feGaussianBlur40-52-0" /><feOffset
         result="offset"
         in="blur"
         dx="0.000000"
         dy="15.000000"
         id="feOffset40-27-0" /><feComposite
         result="comp1"
         operator="in"
         in="flood"
         in2="offset"
         id="feComposite40-1-6" /><feComposite
         result="fbSourceGraphic"
         operator="over"
         in="SourceGraphic"
         in2="comp1"
         id="feComposite41-52-2" /><feColorMatrix
         result="fbSourceGraphicAlpha"
         in="fbSourceGraphic"
         values="0 0 0 -1 0 0 0 0 -1 0 0 0 0 -1 0 0 0 0 1 0"
         id="feColorMatrix41-1-4" /><feFlood
         id="feFlood41-1-7"
         result="flood"
         in="fbSourceGraphic"
         flood-opacity="0.149020"
         flood-color="rgb(0,0,0)" /><feGaussianBlur
         id="feGaussianBlur41-01-4"
         result="blur"
         in="fbSourceGraphic"
         stdDeviation="50.000000" /><feOffset
         id="feOffset41-8-1"
         result="offset"
         in="blur"
         dx="0.000000"
         dy="15.000000" /><feComposite
         id="feComposite42-7-8"
         result="comp1"
         operator="in"
         in="flood"
         in2="offset" /><feComposite
         id="feComposite43-6-58"
         result="comp2"
         operator="over"
         in="fbSourceGraphic"
         in2="comp1" /></filter><filter
       style="color-interpolation-filters:sRGB"
       inkscape:label="Drop Shadow"
       id="filter41-2-73"
       x="-2.142553"
       y="-2.1423778"
       width="5.285106"
       height="5.5525528"><feFlood
         result="flood"
         in="SourceGraphic"
         flood-opacity="0.149020"
         flood-color="rgb(0,0,0)"
         id="feFlood40-2-2" /><feGaussianBlur
         result="blur"
         in="SourceGraphic"
         stdDeviation="50.000000"
         id="feGaussianBlur40-52-5" /><feOffset
         result="offset"
         in="blur"
         dx="0.000000"
         dy="15.000000"
         id="feOffset40-27-63" /><feComposite
         result="comp1"
         operator="in"
         in="flood"
         in2="offset"
         id="feComposite40-1-4" /><feComposite
         result="fbSourceGraphic"
         operator="over"
         in="SourceGraphic"
         in2="comp1"
         id="feComposite41-52-06" /><feColorMatrix
         result="fbSourceGraphicAlpha"
         in="fbSourceGraphic"
         values="0 0 0 -1 0 0 0 0 -1 0 0 0 0 -1 0 0 0 0 1 0"
         id="feColorMatrix41-1-04" /><feFlood
         id="feFlood41-1-05"
         result="flood"
         in="fbSourceGraphic"
         flood-opacity="0.149020"
         flood-color="rgb(0,0,0)" /><feGaussianBlur
         id="feGaussianBlur41-01-6"
         result="blur"
         in="fbSourceGraphic"
         stdDeviation="50.000000" /><feOffset
         id="feOffset41-8-85"
         result="offset"
         in="blur"
         dx="0.000000"
         dy="15.000000" /><feComposite
         id="feComposite42-7-3"
         result="comp1"
         operator="in"
         in="flood"
         in2="offset" /><feComposite
         id="feComposite43-6-76"
         result="comp2"
         operator="over"
         in="fbSourceGraphic"
         in2="comp1" /></filter></defs><g
     inkscape:label="Orb"
     id="layer1"
     clip-path="url(#clipPath13)"><rect
       style="display:inline;fill:#000000;stroke-width:0;stroke-dasharray:none;paint-order:stroke fill markers"
       id="rect2"
       width="2048"
       height="2048"
       x="-2.8421709e-14"
       y="0" /><ellipse
       style="opacity:0.3;fill:url(#radialGradient3);stroke-width:0;stroke-dasharray:none;paint-order:stroke fill markers"
       id="path2"
       cx="542.59613"
       cy="1779.7361"
       rx="1890.519"
       ry="1094.3514" /><ellipse
       style="opacity:0.3;fill:url(#radialGradient3-8);stroke-width:0;stroke-dasharray:none;paint-order:stroke fill markers"
       id="path2-0"
       cx="1279.7816"
       cy="531.15735"
       rx="822.80334"
       ry="734.41217" /><ellipse
       style="opacity:0.5;fill:url(#radialGradient3-8-3);stroke-width:0;stroke-dasharray:none;paint-order:stroke fill markers"
       id="path2-0-9"
       cx="-145.72273"
       cy="504.50522"
       rx="950.27478"
       ry="674.23901" /><ellipse
       style="opacity:0.02;fill:url(#radialGradient3-9);stroke-width:0;stroke-dasharray:none;paint-order:stroke fill markers"
       id="path2-2"
       cx="363.22968"
       cy="736.72418"
       rx="1071.3367"
       ry="688.83221" /><ellipse
       style="opacity:0.3;fill:url(#radialGradient3-4);stroke-width:0;stroke-dasharray:none;paint-order:stroke fill markers"
       id="path2-6"
       cx="1645.201"
       cy="1273.563"
       rx="708.53412"
       ry="780.2168" /></g><g
     inkscape:groupmode="layer"
     id="layer2"
     inkscape:label="Logo"
     style="filter:url(#filter41)"><path
       id="path4"
       style="fill:#ffffff;fill-opacity:1;stroke:#09090b;stroke-width:0.999023;stroke-dasharray:none;stroke-opacity:1"
       d="M 1000,488.49951 A 511.50049,511.5005 0 0 0 488.49951,999.9999 511.50049,511.5005 0 0 0 1000,1511.5005 h 355.6527 55.9454 c 55.3459,0 99.9024,-44.5564 99.9024,-99.9023 V 1355.6527 999.9999 A 511.50049,511.5005 0 0 0 1000,488.49951 Z m 0.4702,99.90244 A 411.59806,411.59807 0 0 1 1412.0683,999.9999 411.59806,411.59807 0 0 1 1000.4702,1411.5982 411.59806,411.59807 0 0 1 588.87219,999.9999 411.59806,411.59807 0 0 1 1000.4702,588.40195 Z" /><ellipse
       style="display:inline;fill:#ffffff;fill-opacity:1;stroke:#09090b;stroke-width:0.999023;stroke-dasharray:none;stroke-opacity:1"
       id="path3"
       ry="312.00809"
       rx="312.04849"
       cy="1000"
       cx="1000" /></g><g
     inkscape:groupmode="layer"
     id="layer3"
     inkscape:label="Stars"
     style="filter:url(#filter41)"><path
       d="m 1888.6832,1313.4315 -32.3006,-12.7797 -12.7801,-32.302 c -1.0549,-2.6816 -3.6409,-4.4246 -6.5069,-4.4246 -2.8651,0 -5.4517,1.7641 -6.5067,4.4246 l -12.7804,32.302 -32.3006,12.7797 c -2.671,1.0585 -4.4249,3.6412 -4.4249,6.5063 0,2.8579 1.7536,5.4513 4.4249,6.5063 l 32.3006,12.7796 12.7804,32.3021 c 1.055,2.6816 3.6409,4.4245 6.5067,4.4245 2.865,0 5.452,-1.7641 6.5069,-4.4245 l 12.7709,-32.3021 32.3006,-12.7796 c 2.671,-1.0586 4.4249,-3.6413 4.4249,-6.5063 0,-2.858 -1.7535,-5.4513 -4.4249,-6.5063 z"
       stroke-width="0"
       id="path1-8"
       style="opacity:0.6;fill:#ffffff;fill-opacity:1;filter:url(#filter41)" /><path
       d="m 1426.107,382.94954 -32.3006,-12.7797 -12.7801,-32.302 c -1.0549,-2.6816 -3.6409,-4.4246 -6.5069,-4.4246 -2.8651,0 -5.4517,1.7641 -6.5067,4.4246 l -12.7804,32.302 -32.3006,12.7797 c -2.671,1.0585 -4.4249,3.6412 -4.4249,6.5063 0,2.8579 1.7536,5.4513 4.4249,6.5063 l 32.3006,12.77956 12.7804,32.30211 c 1.055,2.6816 3.6409,4.4245 6.5067,4.4245 2.865,0 5.452,-1.7641 6.5069,-4.4245 l 12.7709,-32.30211 32.3006,-12.77956 c 2.671,-1.0586 4.4249,-3.6413 4.4249,-6.5063 0,-2.858 -1.7535,-5.4513 -4.4249,-6.5063 z"
       stroke-width="0"
       id="path1-8-4"
       style="opacity:0.6;fill:#ffffff;fill-opacity:1;filter:url(#filter41-3)" /><path
       d="m 412.03976,822.23688 -32.3006,-12.7797 -12.7801,-32.302 c -1.0549,-2.6816 -3.6409,-4.4246 -6.5069,-4.4246 -2.8651,0 -5.4517,1.7641 -6.5067,4.4246 l -12.7804,32.302 -32.3006,12.7797 c -2.671,1.0585 -4.4249,3.6412 -4.4249,6.5063 0,2.8579 1.7536,5.4513 4.4249,6.5063 l 32.3006,12.77956 12.7804,32.3021 c 1.055,2.6816 3.6409,4.4245 6.5067,4.4245 2.865,0 5.452,-1.7641 6.5069,-4.4245 l 12.7709,-32.3021 32.3006,-12.77956 c 2.671,-1.0586 4.4249,-3.6413 4.4249,-6.5063 0,-2.858 -1.7535,-5.4513 -4.4249,-6.5063 z"
       stroke-width="0"
       id="path1-8-9"
       style="opacity:0.5;fill:#ffffff;fill-opacity:1;filter:url(#filter41-2)"
       transform="matrix(0.45749571,0,0,0.45749571,54.977026,391.95985)" /><path
       d="m 412.03976,822.23688 -32.3006,-12.7797 -12.7801,-32.302 c -1.0549,-2.6816 -3.6409,-4.4246 -6.5069,-4.4246 -2.8651,0 -5.4517,1.7641 -6.5067,4.4246 l -12.7804,32.302 -32.3006,12.7797 c -2.671,1.0585 -4.4249,3.6412 -4.4249,6.5063 0,2.8579 1.7536,5.4513 4.4249,6.5063 l 32.3006,12.77956 12.7804,32.3021 c 1.055,2.6816 3.6409,4.4245 6.5067,4.4245 2.865,0 5.452,-1.7641 6.5069,-4.4245 l 12.7709,-32.3021 32.3006,-12.77956 c 2.671,-1.0586 4.4249,-3.6413 4.4249,-6.5063 0,-2.858 -1.7535,-5.4513 -4.4249,-6.5063 z"
       stroke-width="0"
       id="path1-8-9-3"
       style="opacity:0.3;fill:#ffffff;fill-opacity:1;filter:url(#filter41-2-5)"
       transform="matrix(0.45749571,0,0,0.45749571,734.87841,-203.29789)"
       inkscape:transform-center-x="1355.5245"
       inkscape:transform-center-y="58.911967" /><path
       d="m 412.03976,822.23688 -32.3006,-12.7797 -12.7801,-32.302 c -1.0549,-2.6816 -3.6409,-4.4246 -6.5069,-4.4246 -2.8651,0 -5.4517,1.7641 -6.5067,4.4246 l -12.7804,32.302 -32.3006,12.7797 c -2.671,1.0585 -4.4249,3.6412 -4.4249,6.5063 0,2.8579 1.7536,5.4513 4.4249,6.5063 l 32.3006,12.77956 12.7804,32.3021 c 1.055,2.6816 3.6409,4.4245 6.5067,4.4245 2.865,0 5.452,-1.7641 6.5069,-4.4245 l 12.7709,-32.3021 32.3006,-12.77956 c 2.671,-1.0586 4.4249,-3.6413 4.4249,-6.5063 0,-2.858 -1.7535,-5.4513 -4.4249,-6.5063 z"
       stroke-width="0"
       id="path1-8-9-0"
       style="opacity:0.3;fill:#ffffff;fill-opacity:1;filter:url(#filter41-2-0)"
       transform="matrix(0.45749571,0,0,0.45749571,1623.9194,550.52629)"
       inkscape:transform-center-x="620.56714"
       inkscape:transform-center-y="-538.77712" /><path
       d="m 412.03976,822.23688 -32.3006,-12.7797 -12.7801,-32.302 c -1.0549,-2.6816 -3.6409,-4.4246 -6.5069,-4.4246 -2.8651,0 -5.4517,1.7641 -6.5067,4.4246 l -12.7804,32.302 -32.3006,12.7797 c -2.671,1.0585 -4.4249,3.6412 -4.4249,6.5063 0,2.8579 1.7536,5.4513 4.4249,6.5063 l 32.3006,12.77956 12.7804,32.3021 c 1.055,2.6816 3.6409,4.4245 6.5067,4.4245 2.865,0 5.452,-1.7641 6.5069,-4.4245 l 12.7709,-32.3021 32.3006,-12.77956 c 2.671,-1.0586 4.4249,-3.6413 4.4249,-6.5063 0,-2.858 -1.7535,-5.4513 -4.4249,-6.5063 z"
       stroke-width="0"
       id="path1-8-9-9"
       style="opacity:0.3;fill:#ffffff;fill-opacity:1;filter:url(#filter41-2-55)"
       transform="matrix(0.45749571,0,0,0.45749571,1573.8944,203.05754)" /><path
       d="m 412.03976,822.23688 -32.3006,-12.7797 -12.7801,-32.302 c -1.0549,-2.6816 -3.6409,-4.4246 -6.5069,-4.4246 -2.8651,0 -5.4517,1.7641 -6.5067,4.4246 l -12.7804,32.302 -32.3006,12.7797 c -2.671,1.0585 -4.4249,3.6412 -4.4249,6.5063 0,2.8579 1.7536,5.4513 4.4249,6.5063 l 32.3006,12.77956 12.7804,32.3021 c 1.055,2.6816 3.6409,4.4245 6.5067,4.4245 2.865,0 5.452,-1.7641 6.5069,-4.4245 l 12.7709,-32.3021 32.3006,-12.77956 c 2.671,-1.0586 4.4249,-3.6413 4.4249,-6.5063 0,-2.858 -1.7535,-5.4513 -4.4249,-6.5063 z"
       stroke-width="0"
       id="path1-8-9-1"
       style="opacity:0.3;fill:#ffffff;fill-opacity:1;filter:url(#filter41-2-7)"
       transform="matrix(0.45749571,0,0,0.45749571,1502.7713,1242.6366)" /><path
       d="m 412.03976,822.23688 -32.3006,-12.7797 -12.7801,-32.302 c -1.0549,-2.6816 -3.6409,-4.4246 -6.5069,-4.4246 -2.8651,0 -5.4517,1.7641 -6.5067,4.4246 l -12.7804,32.302 -32.3006,12.7797 c -2.671,1.0585 -4.4249,3.6412 -4.4249,6.5063 0,2.8579 1.7536,5.4513 4.4249,6.5063 l 32.3006,12.77956 12.7804,32.3021 c 1.055,2.6816 3.6409,4.4245 6.5067,4.4245 2.865,0 5.452,-1.7641 6.5069,-4.4245 l 12.7709,-32.3021 32.3006,-12.77956 c 2.671,-1.0586 4.4249,-3.6413 4.4249,-6.5063 0,-2.858 -1.7535,-5.4513 -4.4249,-6.5063 z"
       stroke-width="0"
       id="path1-8-9-4"
       style="opacity:0.3;fill:#ffffff;fill-opacity:1;filter:url(#filter41-2-2)"
       transform="matrix(0.45749571,0,0,0.45749571,995.95826,1281.216)" /><path
       d="m 412.03976,822.23688 -32.3006,-12.7797 -12.7801,-32.302 c -1.0549,-2.6816 -3.6409,-4.4246 -6.5069,-4.4246 -2.8651,0 -5.4517,1.7641 -6.5067,4.4246 l -12.7804,32.302 -32.3006,12.7797 c -2.671,1.0585 -4.4249,3.6412 -4.4249,6.5063 0,2.8579 1.7536,5.4513 4.4249,6.5063 l 32.3006,12.77956 12.7804,32.3021 c 1.055,2.6816 3.6409,4.4245 6.5067,4.4245 2.865,0 5.452,-1.7641 6.5069,-4.4245 l 12.7709,-32.3021 32.3006,-12.77956 c 2.671,-1.0586 4.4249,-3.6413 4.4249,-6.5063 0,-2.858 -1.7535,-5.4513 -4.4249,-6.5063 z"
       stroke-width="0"
       id="path1-8-9-6"
       style="opacity:0.3;fill:#ffffff;fill-opacity:1;filter:url(#filter41-2-71)"
       transform="matrix(0.45749571,0,0,0.45749571,684.37056,1538.6076)" /><path
       d="m 412.03976,822.23688 -32.3006,-12.7797 -12.7801,-32.302 c -1.0549,-2.6816 -3.6409,-4.4246 -6.5069,-4.4246 -2.8651,0 -5.4517,1.7641 -6.5067,4.4246 l -12.7804,32.302 -32.3006,12.7797 c -2.671,1.0585 -4.4249,3.6412 -4.4249,6.5063 0,2.8579 1.7536,5.4513 4.4249,6.5063 l 32.3006,12.77956 12.7804,32.3021 c 1.055,2.6816 3.6409,4.4245 6.5067,4.4245 2.865,0 5.452,-1.7641 6.5069,-4.4245 l 12.7709,-32.3021 32.3006,-12.77956 c 2.671,-1.0586 4.4249,-3.6413 4.4249,-6.5063 0,-2.858 -1.7535,-5.4513 -4.4249,-6.5063 z"
       stroke-width="0"
       id="path1-8-9-93"
       style="opacity:0.3;fill:#ffffff;fill-opacity:1;filter:url(#filter41-2-8)"
       transform="matrix(0.45749571,0,0,0.45749571,333.37908,112.02018)" /><path
       d="m 412.03976,822.23688 -32.3006,-12.7797 -12.7801,-32.302 c -1.0549,-2.6816 -3.6409,-4.4246 -6.5069,-4.4246 -2.8651,0 -5.4517,1.7641 -6.5067,4.4246 l -12.7804,32.302 -32.3006,12.7797 c -2.671,1.0585 -4.4249,3.6412 -4.4249,6.5063 0,2.8579 1.7536,5.4513 4.4249,6.5063 l 32.3006,12.77956 12.7804,32.3021 c 1.055,2.6816 3.6409,4.4245 6.5067,4.4245 2.865,0 5.452,-1.7641 6.5069,-4.4245 l 12.7709,-32.3021 32.3006,-12.77956 c 2.671,-1.0586 4.4249,-3.6413 4.4249,-6.5063 0,-2.858 -1.7535,-5.4513 -4.4249,-6.5063 z"
       stroke-width="0"
       id="path1-8-9-7"
       style="opacity:0.3;fill:#ffffff;fill-opacity:1;filter:url(#filter41-2-73)"
       transform="matrix(0.45749571,0,0,0.45749571,35.308043,892.17986)" /><path
       d="m 462.62834,1534.2196 -32.30065,-12.7797 -12.78004,-32.302 c -1.05497,-2.6816 -3.6409,-4.4246 -6.50698,-4.4246 -2.86502,0 -5.45165,1.7641 -6.50663,4.4246 l -12.78039,32.302 -32.30064,12.7797 c -2.67097,1.0585 -4.42491,3.6412 -4.42491,6.5063 0,2.8579 1.75359,5.4513 4.42491,6.5063 l 32.30064,12.7796 12.78039,32.3021 c 1.05498,2.6816 3.6409,4.4245 6.50663,4.4245 2.86502,0 5.45201,-1.7641 6.50698,-4.4245 l 12.77087,-32.3021 32.30064,-12.7796 c 2.67096,-1.0586 4.4249,-3.6413 4.4249,-6.5063 0,-2.858 -1.75359,-5.4513 -4.4249,-6.5063 z"
       stroke-width="0"
       id="path1"
       style="opacity:0.6;fill:#ffffff;fill-opacity:1" /></g></svg>
