<?xml version="1.0" encoding="UTF-8" standalone="no"?>
<!-- Created with Inkscape (http://www.inkscape.org/) -->

<svg
   width="120.879mm"
   height="24.799999mm"
   viewBox="0 0 120.879 24.799998"
   version="1.1"
   id="svg1"
   inkscape:export-filename="stagewise-logo-text.svg"
   inkscape:export-xdpi="96"
   inkscape:export-ydpi="96"
   xmlns:inkscape="http://www.inkscape.org/namespaces/inkscape"
   xmlns:sodipodi="http://sodipodi.sourceforge.net/DTD/sodipodi-0.dtd"
   xmlns="http://www.w3.org/2000/svg"
   xmlns:svg="http://www.w3.org/2000/svg">
  <sodipodi:namedview
     id="namedview1"
     pagecolor="#ffffff"
     bordercolor="#000000"
     borderopacity="0.25"
     inkscape:showpageshadow="2"
     inkscape:pageopacity="0.0"
     inkscape:pagecheckerboard="0"
     inkscape:deskcolor="#d1d1d1"
     inkscape:document-units="mm"
     inkscape:export-bgcolor="#ffffff00">
    <inkscape:page
       x="0"
       y="0"
       width="120.879"
       height="24.799999"
       id="page2"
       margin="0"
       bleed="0" />
  </sodipodi:namedview>
  <defs
     id="defs1">
    <linearGradient
       id="swatch1"
       inkscape:swatch="solid">
      <stop
         style="stop-color:#000000;stop-opacity:1;"
         offset="0"
         id="stop1" />
    </linearGradient>
  </defs>
  <g
     inkscape:label="Layer 1"
     inkscape:groupmode="layer"
     id="layer1"
     transform="translate(-58.537783,-100.23516)">
    <path
       style="font-size:25.4px;font-family:Chillax;-inkscape-font-specification:Chillax;stroke-width:0;paint-order:stroke fill markers"
       d="m 63.262183,119.10936 c 2.4384,0 4.5466,-1.397 4.5466,-3.6322 0,-4.6736 -7.3152,-2.6162 -7.3152,-5.6134 0,-1.27 1.3208,-2.0066 2.6924,-2.0066 1.2954,0 2.3622,0.3556 3.0226,1.6002 l 1.2954,-0.7366 c -0.8128,-1.4732 -2.3368,-2.3368 -4.3434,-2.3368 -2.3622,0 -4.2418,1.4478 -4.2418,3.5052 0,4.6736 7.3152,2.5146 7.3152,5.6134 0,1.4224 -1.3716,2.1336 -3.0226,2.1336 -1.4986,0 -2.6416,-0.508 -3.3782,-1.9304 l -1.2954,0.7112 c 0.9144,1.8034 2.6416,2.6924 4.7244,2.6924 z m 12.979382,0.0508 c 0.9144,0 1.8288,-0.3048 2.4638,-0.7874 v -1.524 c -0.6096,0.508 -1.4478,0.8382 -2.3368,0.8382 -1.6256,0 -2.6924,-1.0668 -2.6924,-2.8956 v -6.8072 h 5.0292 v -1.4224 h -5.0292 v -3.2766 h -1.5748 v 3.2766 h -2.6162 v 1.4224 h 2.6162 v 6.858 c 0,2.6162 1.524,4.318 4.1402,4.318 z m 11.2268,-0.0254 c 2.3368,0 4.2418,-1.27 5.1816,-3.1242 v 2.8702 h 1.4986 v -6.1976 c 0,-3.6068 -2.8448,-6.4008 -6.477,-6.4008 -3.683,0 -6.4516,2.8956 -6.4516,6.4008 0,3.556 2.6924,6.4516 6.2484,6.4516 z m 0.2032,-1.4986 c -2.7178,0 -4.8768,-2.2352 -4.8768,-4.9276 0,-2.6924 2.159,-4.9276 4.8768,-4.9276 2.7432,0 4.9022,2.2352 4.9022,4.9276 0,2.6924 -2.159,4.9276 -4.9022,4.9276 z m 15.951215,7.1882 c 3.8608,0 6.6294,-2.7432 6.6294,-6.9596 v -5.1816 c 0,-3.6068 -2.8448,-6.4008 -6.477,-6.4008 -3.683,0 -6.451596,2.8956 -6.451596,6.4008 0,3.5814 2.768596,6.4008 6.299196,6.4008 2.3622,0 4.191,-1.27 5.0546,-2.9972 v 1.7272 c 0,3.3274 -2.0828,5.5118 -5.08,5.5118 -1.9304,0 -3.5814,-0.8382 -4.470396,-2.3876 l -1.3208,0.7366 c 1.1176,2.0574 3.327396,3.1496 5.816596,3.1496 z m 0.1524,-7.239 c -2.6924,0 -4.876796,-2.2098 -4.876796,-4.9276 0,-2.6924 2.184396,-4.8768 4.876796,-4.8768 2.7178,0 4.9022,2.1844 4.9022,4.8768 0,2.7178 -2.1844,4.9276 -4.9022,4.9276 z m 16.00202,1.5494 c 2.2606,0 4.191,-1.016 5.3086,-3.048 l -1.2192,-0.6604 c -0.889,1.5748 -2.413,2.2098 -4.0894,2.2098 -2.6162,0 -4.5466,-1.8542 -4.8006,-4.3688 h 10.4394 v -0.9398 c 0,-3.5052 -2.3368,-6.0706 -5.9182,-6.0706 -3.6068,0 -6.0706,2.8702 -6.0706,6.4262 0,3.683 2.7178,6.4516 6.35,6.4516 z m -4.7498,-7.1374 c 0.2286,-2.3876 1.905,-4.2418 4.4704,-4.2418 2.4892,0 4.2926,1.6764 4.3434,4.2418 z m 17.04342,7.1628 c 1.143,0 1.778,-0.635 2.0828,-1.8796 l 2.1844,-8.8646 c 0.1016,-0.4826 0.381,-0.7366 0.762,-0.7366 0.381,0 0.6604,0.254 0.7874,0.7366 l 2.159,8.8646 c 0.3048,1.2446 0.9398,1.8796 2.1082,1.8796 1.1176,0 1.8034,-0.635 2.1082,-1.9304 l 2.4384,-10.668 h -1.4732 l -2.3368,10.3632 c -0.127,0.5334 -0.3556,0.7874 -0.7366,0.7874 -0.381,0 -0.635,-0.254 -0.762,-0.7112 l -2.159,-8.8392 c -0.3048,-1.27 -1.016,-1.8796 -2.1082,-1.8796 -1.1176,0 -1.8288,0.6096 -2.159,1.905 l -2.1844,8.8138 c -0.1016,0.4318 -0.3556,0.7112 -0.7112,0.7112 -0.4064,0 -0.635,-0.254 -0.762,-0.7874 l -2.3622,-10.3632 h -1.4986 l 2.4638,10.668 c 0.3048,1.27 1.016,1.9304 2.159,1.9304 z m 17.98321,-12.5984 v 12.319 h 1.5748 v -12.319 z m 10.26157,12.5476 c 2.4384,0 4.5466,-1.397 4.5466,-3.6322 0,-4.6736 -7.3152,-2.6162 -7.3152,-5.6134 0,-1.27 1.3208,-2.0066 2.6924,-2.0066 1.2954,0 2.3622,0.3556 3.0226,1.6002 l 1.2954,-0.7366 c -0.8128,-1.4732 -2.3368,-2.3368 -4.3434,-2.3368 -2.3622,0 -4.2418,1.4478 -4.2418,3.5052 0,4.6736 7.3152,2.5146 7.3152,5.6134 0,1.4224 -1.3716,2.1336 -3.0226,2.1336 -1.4986,0 -2.6416,-0.508 -3.3782,-1.9304 l -1.2954,0.7112 c 0.9144,1.8034 2.6416,2.6924 4.7244,2.6924 z m 13.46199,0.0254 c 2.2606,0 4.191,-1.016 5.3086,-3.048 l -1.2192,-0.6604 c -0.889,1.5748 -2.413,2.2098 -4.0894,2.2098 -2.6162,0 -4.5466,-1.8542 -4.8006,-4.3688 h 10.4394 v -0.9398 c 0,-3.5052 -2.3368,-6.0706 -5.9182,-6.0706 -3.6068,0 -6.0706,2.8702 -6.0706,6.4262 0,3.683 2.7178,6.4516 6.35,6.4516 z m -4.7498,-7.1374 c 0.2286,-2.3876 1.905,-4.2418 4.4704,-4.2418 2.4892,0 4.2926,1.6764 4.3434,4.2418 z"
       id="text1"
       aria-label="stagewise"
       sodipodi:nodetypes="ssssccssssccssccssccccccccccssscccssssssssssssssscssccsssssssccsccsssscsccsccsccsccccsccsccsccccscccccssssccssssccssccsccsssscscc" />
  </g>
</svg>
